<svg height="496pt" viewBox="0 0 496 496" width="496pt" xmlns="http://www.w3.org/2000/svg"><path d="m256 32h-16v16h-16v16h16v16h16v-16h16v-16h-16zm0 0"/><path d="m272 160v-32h16c8.824219 0 16-7.175781 16-16v-8h43.71875l22.402344 33.59375 30.496094-83.867188 18.109374 42.273438h77.273438v-16h-66.726562l-29.882813-69.726562-33.503906 92.132812-9.605469-14.40625h-52.28125v-72c0-8.824219-7.175781-16-16-16h-80c-8.824219 0-16 7.175781-16 16v40h-69.273438l-18.117187 42.273438-30.488281-83.867188-22.402344 33.59375h-51.71875v16h60.28125l9.597656-14.40625 33.503906 92.132812 29.890626-69.726562h58.726562v40c0 8.824219 7.175781 16 16 16h16v32h16v48h-40c-13.59375 0-27.199219 3.207031-39.351562 9.289062l-5.550782 2.773438c-5.113281-16.199219-20.105468-28.0625-37.976562-28.0625h-29.121094c-9.039062 0-17.296875 3.128906-24 8.207031v-32.207031c0-13.230469-10.769531-24-24-24s-24 10.769531-24 24v120c-8.824219 0-16 7.175781-16 16v16c0 8.824219 7.175781 16 16 16h24v88.089844c-10.023438 7.542968-16 19.285156-16 31.910156 0 22.054688 17.945312 40 40 40s40-17.945312 40-40c0-12.617188-6.039062-24.457031-16-31.960938v-88.039062h320v88.039062c-9.960938 7.496094-16 19.34375-16 31.960938 0 22.054688 17.945312 40 40 40s40-17.945312 40-40c0-12.617188-6.039062-24.457031-16-31.960938v-88.039062h24c8.824219 0 16-7.175781 16-16v-16c0-8.824219-7.175781-16-16-16h-.40625c-4.058594-44.785156-41.769531-80-87.59375-80h-136v-48zm-184 48h29.121094c13.230468 0 24 10.769531 24 24s-10.769532 24-24 24h-29.121094c-13.230469 0-24-10.769531-24-24s10.769531-24 24-24zm32 64c10.414062 0 19.214844 6.710938 22.527344 16h-77.054688c3.3125-9.289062 12.113282-16 22.527344-16zm-56-8.207031c.089844.070312.160156.144531.246094.207031-.085938.0625-.15625.136719-.246094.207031zm-32-95.792969c0-4.40625 3.585938-8 8-8s8 3.59375 8 8v120h-16zm32 312c-13.230469 0-24-10.769531-24-24 0-2.753906.625-5.367188 1.511719-7.886719 3.335937 9.230469 12.113281 15.886719 22.488281 15.886719 10.367188 0 19.144531-6.648438 22.488281-15.878906.886719 2.519531 1.511719 5.136718 1.511719 7.878906 0 13.230469-10.769531 24-24 24zm8-40c0 4.40625-3.585938 8-8 8s-8-3.59375-8-8v-104h16zm360 40c-13.230469 0-24-10.769531-24-24 0-2.742188.625-5.359375 1.511719-7.878906 3.34375 9.230468 12.121093 15.878906 22.488281 15.878906s19.144531-6.648438 22.488281-15.878906c.886719 2.519531 1.511719 5.136718 1.511719 7.878906 0 13.230469-10.769531 24-24 24zm8-40c0 4.40625-3.585938 8-8 8s-8-3.59375-8-8v-104h16zm23.527344-152h-31.527344v16h48v16h-464v-16h400v-16h-256.808594c-2.128906-10.441406-8.335937-19.414062-16.886718-25.183594 7.679687-6.289062 12.925781-15.296875 14.289062-25.609375l11.214844-5.605469c9.933594-4.96875 21.0625-7.601562 32.191406-7.601562h192c37 0 67.535156 28.054688 71.527344 64zm-255.527344-272h80l.007812 96h-80.007812zm48 112v16h-16v-16zm0 0"/></svg>